<svg id="Слой_1" data-name="Слой 1" xmlns="http://www.w3.org/2000/svg" viewBox="0 0 127.47 123.01"><defs><style>.cls-1{fill:#fff;}.cls-2{fill:none;stroke:#fffdfd;stroke-miterlimit:10;stroke-width:1.5px;}</style></defs><path class="cls-1" d="M32.35,110.89a4.56,4.56,0,0,1,.14,2.29l-.14,1.19q-.59,4.89-1,7.32v.1l-.05.32c-.1.55-.19,1-.28,1.51L31,124l0,.1a47.74,47.74,0,0,1-1.14,4.7,5.29,5.29,0,0,1-1.71,3,3.2,3.2,0,0,1-1.81.46h0a4.9,4.9,0,0,1-3.16-.82l-.05-.06-.37-.33h.09a0,0,0,0,1,0,0,4.24,4.24,0,0,1-.45-1.15c-.05-.22-.11-.43-.16-.63v0c-.06-.17-.14-.44-.23-.79-.45-1.68-.75-3-.92-3.87a1.83,1.83,0,0,0-.2-.66c-.11-.22-.24-.29-.39-.23a.64.64,0,0,0-.28.36c-.18.66-.38,1.43-.58,2.3-.15.68-.32,1.47-.51,2.36l-.14.79a3.26,3.26,0,0,1-.81,1.94,2.58,2.58,0,0,1-1.42.59,8.49,8.49,0,0,1-2.26.13,3,3,0,0,1-1.29-.39,3.64,3.64,0,0,1-.88-.69,4.38,4.38,0,0,1-.63-1,10.17,10.17,0,0,1-.44-1.15c-.1-.31-.22-.76-.37-1.35l-.08-.36v0l0-.07c-.17-.7-.35-1.51-.53-2.43l-.08-.39v-.1c-.08-.37-.18-.91-.31-1.61l-.11-.62c-.25-1.27-.47-2.55-.67-3.84-.06-.29-.14-.71-.26-1.28l-.25-1.43c-.05-.34-.11-.78-.18-1.31a9.66,9.66,0,0,1-.07-1.48,10.78,10.78,0,0,1,.14-1.3,2,2,0,0,1,.81-1.31l.06,0,.36-.23v.06a3,3,0,0,1,1.15-.2,2.63,2.63,0,0,1,1.78.6s0,0,.06.06V110l.31.46,0,0v0a3.23,3.23,0,0,1,.5,1.44q.62,4.17,1.95,12a.33.33,0,0,1,0,.1.2.2,0,0,0,.11.07c.15,0,.32-.21.51-.55a4.83,4.83,0,0,0,.36-.8,15.51,15.51,0,0,0,.39-2.07c.06-.37.1-.67.14-.89a18,18,0,0,1,1.15-4.1v0l0,0,.17-.4a2.73,2.73,0,0,1,.45-.66,1.66,1.66,0,0,1,1-.42l0,0h.45a3.32,3.32,0,0,1,1.64.56,4.71,4.71,0,0,1,2.07,2.76,17.84,17.84,0,0,1,.45,2.33,12.91,12.91,0,0,0,.92,3.42,1.25,1.25,0,0,0,.36.46c.17.11.3.09.4,0a.53.53,0,0,0,.11-.33c.13-.76.26-1.68.39-2.75l0-.23c.07-.66.15-1.34.22-2,.11-.87.25-1.87.42-3h0l0-.06,0-.4c.12-.74.25-1.53.4-2.36l.19-1.25a3,3,0,0,1,.48-1.34c.54-.62,1.42-.74,2.65-.36A2.22,2.22,0,0,1,32.35,110.89Z" transform="translate(-8.2 -9.51)"/><path class="cls-1" d="M40,129.53a3.93,3.93,0,0,1,0,.46v.1l0,.4v0a1.78,1.78,0,0,1-.14.46A1.81,1.81,0,0,1,38.53,132l0,0-.3,0h-.09l-.39,0h-.19l-.76-.1a2,2,0,0,1-1.59-.82,2.8,2.8,0,0,1-.31-1.28c-.13-1.58-.2-3.34-.22-5.29v-2.43c0-.85,0-2.12,0-3.81q.09-3.77.06-5.64v-.4a3.48,3.48,0,0,1,.73-2.43,2.5,2.5,0,0,1,1.23-.65h0l.42-.07h.05a2.44,2.44,0,0,1,2.27.89,4.34,4.34,0,0,1,.44,2.62l0,.27c0,.81,0,2,0,3.61v.26q0,2.3,0,6.93C40,126.35,40,128.27,40,129.53Z" transform="translate(-8.2 -9.51)"/><path class="cls-1" d="M56.63,122.9a8,8,0,0,1,.39,2.56,7.67,7.67,0,0,1-.51,2.86,5.9,5.9,0,0,1-1.56,2.2A7.41,7.41,0,0,1,52.44,132a10.64,10.64,0,0,1-7.43-.23,4.93,4.93,0,0,1-1.57-.95,3.17,3.17,0,0,1-.86-1.21l-.11-.3-.06-.2a3,3,0,0,1,.17-2h0l.17-.26v0l0-.07a3.4,3.4,0,0,1,.34-.43,1.38,1.38,0,0,1,1-.26,4.26,4.26,0,0,1,1.46.59l.42.2a6.23,6.23,0,0,0,2.9.75h.17a4.62,4.62,0,0,0,1.17-.19,3.2,3.2,0,0,0,.56-.27,1.83,1.83,0,0,0,.76-.82,1.9,1.9,0,0,0,.14-1.31,1.76,1.76,0,0,0-.48-.85,2.7,2.7,0,0,0-.67-.51,7.88,7.88,0,0,0-.89-.35l-.23-.1-.5-.19-.39-.13c-.93-.35-1.64-.64-2.13-.86l-.41-.19a7,7,0,0,1-2.74-2.43,6.73,6.73,0,0,1-.9-3.19,7.14,7.14,0,0,1,1.09-4.27v0l.37-.52v.06a4.8,4.8,0,0,1,.55-.61c.19-.16.41-.33.65-.5h0l.47-.27.06,0a8.79,8.79,0,0,1,4.36-1,14.46,14.46,0,0,1,2.46.19l.84.23.08,0,.28.1a7.06,7.06,0,0,1,1.2.59l.14.14v0l.25.23.06.07A2.87,2.87,0,0,1,56,112a3.18,3.18,0,0,1,0,1.41,1.56,1.56,0,0,1-.3.79,1.22,1.22,0,0,1-1.15.43,27.24,27.24,0,0,1-3-.46,5.64,5.64,0,0,0-2.4-.07,1.91,1.91,0,0,0-1.17.79,1.47,1.47,0,0,0,.58,2.2c.45.22,1.13.51,2,.88a21.78,21.78,0,0,1,3,1.42c.34.22.68.47,1,.75l.16.13.09.07v0a7.92,7.92,0,0,1,.58.56,4.62,4.62,0,0,1,.67,1h0l.06.13.08.16v0A3.74,3.74,0,0,1,56.63,122.9Z" transform="translate(-8.2 -9.51)"/><path class="cls-1" d="M75.91,119.16c0,4.22.06,7.4.06,9.52,0,1.69-.38,2.74-1.12,3.15a3.25,3.25,0,0,1-2,.23,2.42,2.42,0,0,1-1.6-.69,2.62,2.62,0,0,1-.5-1.64c0-.5,0-1.14,0-1.9v0l0-.52v-.69c0-.66,0-1.15,0-1.48V125a2.58,2.58,0,0,0-.08-.82c-.28-.64-1.06-1-2.35-1.09-.28,0-.7,0-1.28,0h-.5c-.08,0-.13,0-.14,0a2.07,2.07,0,0,0-1.43.39,2.12,2.12,0,0,0-.64,1.41,7.64,7.64,0,0,0,0,1.77c0,.53,0,.94,0,1.22a13.46,13.46,0,0,1-.33,3.22,1.57,1.57,0,0,1-.23.59.89.89,0,0,1-.56.33l-.25.06a6,6,0,0,1-1,.07l-.56,0a2.92,2.92,0,0,1-1.36-.4c-.75-.5-1.1-1.6-1.07-3.28,0-1.23.07-2.55.09-4q0-.93,0-2.07c0-1.78,0-4.42,0-7.95v-2.76a4,4,0,0,1,.14-1.21,1.73,1.73,0,0,1,1.62-1.15c1.53-.15,2.53.14,3,.89a2.62,2.62,0,0,1,.28,1,20.2,20.2,0,0,1,.09,2.07v1q0,1.15,0,1.74c0,.11,0,.24,0,.4a2.17,2.17,0,0,0,.81,1.67,2.48,2.48,0,0,0,1.35.17,3.76,3.76,0,0,1,.47,0c.22,0,.63,0,1.23,0a6.69,6.69,0,0,1,.75,0,1.63,1.63,0,0,0,1.15-.36,1.8,1.8,0,0,0,.5-1.12,24,24,0,0,0,.06-3.81q-.06-1.24-.06-1.8a2.29,2.29,0,0,1,.17-1,1.45,1.45,0,0,1,1-.72,3.66,3.66,0,0,1,2.54-.07,2.26,2.26,0,0,1,1.31,1.61l0,.1.08.33h0a8.91,8.91,0,0,1,0,1.81v.29c0,.35,0,.61,0,.79C75.87,115.54,75.89,117.12,75.91,119.16Z" transform="translate(-8.2 -9.51)"/><path class="cls-1" d="M92.53,111.94a2.5,2.5,0,0,1-.14,1.21c-.33,1-1.23,1.51-2.68,1.58h-.39a11.54,11.54,0,0,1-1.17-.07h-.31a7.09,7.09,0,0,0-1.84,0,2.07,2.07,0,0,0-1.93,1.9,2,2,0,0,0,.47,1.78,2.42,2.42,0,0,0,1.71.62h2.18l.53,0a2.37,2.37,0,0,1,1.65.29,2.33,2.33,0,0,1,.69,1.09,5,5,0,0,1,.23,1v0a3.19,3.19,0,0,1,0,.42,2.3,2.3,0,0,1-.53,1.41,2.79,2.79,0,0,1-2.24.86H88.4l-1-.1a6.52,6.52,0,0,0-2.06,0,1.47,1.47,0,0,0-1.09.76,6.68,6.68,0,0,0-.14,2.76c.05.46.08.78.08,1,.06,1.62-.42,2.73-1.42,3.32a4.46,4.46,0,0,1-2,.52h-.28a1.35,1.35,0,0,1-.84-.23,1.52,1.52,0,0,1-.6-1.07,4.15,4.15,0,0,1,0-1.32c0-.35,0-.61,0-.76s0-.45,0-.76-.06-.7-.12-1.24c0-.27,0-.56,0-.89l0-.26v-.13c0-.48-.05-.91-.05-1.28,0-.57,0-1.42.08-2.53,0-1.36.07-2.38,0-3,0-.44,0-1.1-.13-2a12,12,0,0,1,0-3.55c0-.07,0-.16.05-.3h0v0l.11-.43v0a4.26,4.26,0,0,1,1.93-2.43.4.4,0,0,0,.14-.07h0l.34-.13h0l.06,0a6.78,6.78,0,0,1,2.65-.23h.42c.77,0,1.9,0,3.41,0h.37a6.16,6.16,0,0,1,3,.52A2.49,2.49,0,0,1,92.53,111.94Z" transform="translate(-8.2 -9.51)"/><path class="cls-1" d="M99.69,129.53a3.93,3.93,0,0,1,0,.46v.1l0,.4v0a2.28,2.28,0,0,1-.14.46A1.8,1.8,0,0,1,98.23,132l0,0-.31,0h-.08l-.39,0h-.2l-.75-.1a2,2,0,0,1-1.59-.82,2.8,2.8,0,0,1-.31-1.28c-.13-1.58-.21-3.34-.22-5.29v-2.43c0-.85,0-2.12,0-3.81q.09-3.77.06-5.64v-.4a3.53,3.53,0,0,1,.72-2.43,2.59,2.59,0,0,1,1.23-.65h0l.41-.07h.06a2.41,2.41,0,0,1,2.26.89,4.26,4.26,0,0,1,.45,2.62l0,.27c0,.81,0,2,0,3.61v.26q0,2.3,0,6.93C99.66,126.35,99.69,128.27,99.69,129.53Z" transform="translate(-8.2 -9.51)"/><path class="cls-1" d="M116.34,122.9a8,8,0,0,1,.39,2.56,7.47,7.47,0,0,1-.52,2.86,5.77,5.77,0,0,1-1.55,2.2,7.61,7.61,0,0,1-2.51,1.44,10.64,10.64,0,0,1-7.43-.23,4.82,4.82,0,0,1-1.57-.95,3.31,3.31,0,0,1-.87-1.21l-.11-.3c0-.06,0-.13,0-.2a3.11,3.11,0,0,1,.16-2h0l.16-.26v0l0-.07a2.69,2.69,0,0,1,.34-.43,1.38,1.38,0,0,1,1-.26,4.15,4.15,0,0,1,1.45.59l.42.2a6.3,6.3,0,0,0,2.91.75h.17a4.62,4.62,0,0,0,1.17-.19,3.58,3.58,0,0,0,.56-.27,1.81,1.81,0,0,0,.75-.82,1.85,1.85,0,0,0,.14-1.31,1.67,1.67,0,0,0-.47-.85,2.7,2.7,0,0,0-.67-.51,8.18,8.18,0,0,0-.9-.35l-.22-.1-.5-.19-.39-.13c-.94-.35-1.64-.64-2.13-.86l-.42-.19a7,7,0,0,1-2.73-2.43,6.62,6.62,0,0,1-.9-3.19,7.14,7.14,0,0,1,1.09-4.27v0l.36-.52v.06a5.71,5.71,0,0,1,.56-.61,7.81,7.81,0,0,1,.65-.5h0l.47-.27.06,0a8.76,8.76,0,0,1,4.36-1,14.46,14.46,0,0,1,2.46.19l.83.23.09,0,.28.1a7.46,7.46,0,0,1,1.2.59.86.86,0,0,0,.14.14v0l.25.23.06.07a2.93,2.93,0,0,1,.83,1.41,3.18,3.18,0,0,1,0,1.41,1.65,1.65,0,0,1-.3.79,1.22,1.22,0,0,1-1.15.43,26.9,26.9,0,0,1-3-.46,5.64,5.64,0,0,0-2.4-.07,2,2,0,0,0-1.18.79,1.55,1.55,0,0,0-.25,1.15,1.51,1.51,0,0,0,.84,1c.45.22,1.13.51,2,.88a21.78,21.78,0,0,1,3,1.42c.33.22.68.47,1,.75l.17.13.08.07v0c.23.2.42.38.59.56a5,5,0,0,1,.67,1h0l.06.13.08.16v0A3.74,3.74,0,0,1,116.34,122.9Z" transform="translate(-8.2 -9.51)"/><path class="cls-1" d="M135.62,119.16c0,4.22,0,7.4,0,9.52q0,2.53-1.11,3.15a3.27,3.27,0,0,1-2,.23,2.41,2.41,0,0,1-1.59-.69,2.56,2.56,0,0,1-.5-1.64c0-.5,0-1.14,0-1.9v0l0-.52v-.69c0-.66.05-1.15.05-1.48V125a2.92,2.92,0,0,0-.08-.82c-.28-.64-1.06-1-2.35-1.09-.28,0-.71,0-1.28,0h-.51a.22.22,0,0,1-.14,0,2,2,0,0,0-1.42.39,2.08,2.08,0,0,0-.64,1.41,8.12,8.12,0,0,0,0,1.77c0,.53.06.94.06,1.22a12.92,12.92,0,0,1-.34,3.22,1.58,1.58,0,0,1-.22.59.91.91,0,0,1-.56.33l-.25.06a6.08,6.08,0,0,1-.95.07,5.25,5.25,0,0,1-.56,0,3,3,0,0,1-1.37-.4c-.74-.5-1.1-1.6-1.06-3.28,0-1.23.07-2.55.09-4,0-.62,0-1.31,0-2.07,0-1.78,0-4.42,0-7.95v-2.76a4,4,0,0,1,.14-1.21,1.73,1.73,0,0,1,1.62-1.15c1.53-.15,2.53.14,3,.89a2.81,2.81,0,0,1,.28,1,20.52,20.52,0,0,1,.08,2.07v1q0,1.15,0,1.74a3.28,3.28,0,0,0,0,.4,2.14,2.14,0,0,0,.81,1.67,2.44,2.44,0,0,0,1.34.17,4,4,0,0,1,.48,0c.22,0,.63,0,1.23,0a6.94,6.94,0,0,1,.75,0,1.63,1.63,0,0,0,1.15-.36,1.8,1.8,0,0,0,.5-1.12,24,24,0,0,0,.06-3.81q-.06-1.24-.06-1.8a2.29,2.29,0,0,1,.17-1,1.45,1.45,0,0,1,1-.72,3.69,3.69,0,0,1,2.55-.07,2.28,2.28,0,0,1,1.31,1.61l0,.1.08.33h0a8.11,8.11,0,0,1,.06,1.81v.29c0,.35,0,.61,0,.79C135.58,115.54,135.6,117.12,135.62,119.16Z" transform="translate(-8.2 -9.51)"/><path class="cls-1" d="M57.93,50.47A3.51,3.51,0,0,1,56.18,50a4.27,4.27,0,0,1-1.9-3.88V13.84A4.27,4.27,0,0,1,56.18,10a4.3,4.3,0,0,1,4.31.3l28,16.15A4.25,4.25,0,0,1,90.86,30a4.25,4.25,0,0,1-2.41,3.58l-28,16.15A5.17,5.17,0,0,1,57.93,50.47Zm0-38.46a1,1,0,0,0-.51.12,1.92,1.92,0,0,0-.65,1.71v32.3a1.92,1.92,0,0,0,.65,1.71,1.91,1.91,0,0,0,1.81-.3l28-16.14c.74-.43,1.16-.94,1.16-1.42s-.42-1-1.16-1.42l-28-16.14A2.69,2.69,0,0,0,57.94,12Z" transform="translate(-8.2 -9.51)"/><path class="cls-1" d="M57.93,95.86a3.51,3.51,0,0,1-1.75-.45,4.26,4.26,0,0,1-1.9-3.88V59.24a3.87,3.87,0,0,1,6.21-3.58l28,16.14a3.87,3.87,0,0,1,0,7.17l-28,16.14A5.17,5.17,0,0,1,57.93,95.86Zm0-38.46a1,1,0,0,0-.51.12,1.94,1.94,0,0,0-.65,1.72V91.53a1.94,1.94,0,0,0,.65,1.72,1.94,1.94,0,0,0,1.81-.3l28-16.15c.74-.42,1.16-.94,1.16-1.41s-.42-1-1.16-1.42l-28-16.15A2.69,2.69,0,0,0,57.94,57.4Z" transform="translate(-8.2 -9.51)"/><path class="cls-1" d="M19,74.28a3.48,3.48,0,0,1-1.75-.45A4.27,4.27,0,0,1,15.3,70V37.66a4.26,4.26,0,0,1,1.9-3.88,4.24,4.24,0,0,1,4.3.3l28,16.14a4.28,4.28,0,0,1,2.41,3.58,4.28,4.28,0,0,1-2.41,3.59l-28,16.14A5.13,5.13,0,0,1,19,74.28Zm0-38.46a1,1,0,0,0-.51.12,1.94,1.94,0,0,0-.65,1.72V70a1.91,1.91,0,0,0,.65,1.71,1.91,1.91,0,0,0,1.8-.29l28-16.15c.74-.42,1.16-.94,1.16-1.42s-.42-1-1.16-1.41l-28-16.15A2.66,2.66,0,0,0,19,35.82Z" transform="translate(-8.2 -9.51)"/><path class="cls-1" d="M96.73,73.28A3.48,3.48,0,0,1,95,72.83,4.27,4.27,0,0,1,93.08,69V36.66a3.87,3.87,0,0,1,6.21-3.58l28,16.14a4.28,4.28,0,0,1,2.41,3.58,4.28,4.28,0,0,1-2.41,3.59l-28,16.14A5.17,5.17,0,0,1,96.73,73.28Zm0-38.46a1,1,0,0,0-.51.12,1.94,1.94,0,0,0-.65,1.72V69a1.91,1.91,0,0,0,.65,1.71A1.93,1.93,0,0,0,98,70.37l28-16.15c.74-.42,1.16-.94,1.16-1.42s-.42-1-1.16-1.41L98,35.24A2.69,2.69,0,0,0,96.74,34.82Z" transform="translate(-8.2 -9.51)"/><circle class="cls-2" cx="94.65" cy="36.83" r="2.5"/></svg>